<svg xmlns="http://www.w3.org/2000/svg" width="41.054" height="41.054" viewBox="0 0 41.054 41.054"><defs><style>.a{fill:none;}</style></defs><path class="a" d="M41.054,41.054H0V0H41.054Z"/><path d="M32.08,6H4.711a1.711,1.711,0,1,0,0,3.421H32.08A1.711,1.711,0,0,0,32.08,6Zm0,8.553H4.711a1.711,1.711,0,1,0,0,3.421H32.08a1.711,1.711,0,1,0,0-3.421ZM33.79,24.816a1.716,1.716,0,0,0-1.711-1.711H4.711a1.711,1.711,0,1,0,0,3.421H32.08A1.716,1.716,0,0,0,33.79,24.816Z" transform="translate(2.132 4.263)"/></svg>